<svg xmlns="http://www.w3.org/2000/svg" xmlns:xlink="http://www.w3.org/1999/xlink" width="13px" height="19px"><path fill-rule="evenodd" d="M8.788,18.246 C7.658,18.246 6.763,17.721 6.087,17.234 C4.071,15.785 2.793,13.473 1.905,11.622 C0.895,9.516 0.287,7.363 0.193,5.559 C0.125,4.245 0.306,3.278 0.763,2.518 C1.235,1.731 2.061,1.375 2.789,1.061 C2.929,1.000 3.067,0.941 3.201,0.879 C3.703,0.646 4.273,0.657 4.764,0.907 C5.255,1.156 5.594,1.606 5.691,2.141 L6.403,6.044 C6.543,6.814 6.138,7.584 5.417,7.918 L4.667,8.264 C4.876,8.844 5.122,9.429 5.399,10.006 C5.675,10.582 5.978,11.141 6.301,11.670 L7.051,11.324 C7.772,10.990 8.636,11.175 9.150,11.770 L11.762,14.796 C12.120,15.210 12.258,15.752 12.140,16.284 L12.132,16.316 C11.752,17.714 9.935,18.109 9.387,18.198 C9.180,18.231 8.980,18.246 8.788,18.246 ZM3.954,1.527 C3.818,1.527 3.682,1.556 3.555,1.616 C3.415,1.680 3.270,1.742 3.123,1.806 C2.450,2.096 1.815,2.372 1.478,2.932 C1.107,3.548 0.963,4.370 1.022,5.518 C1.110,7.218 1.690,9.262 2.656,11.274 C3.502,13.039 4.713,15.236 6.577,16.577 C7.559,17.283 8.384,17.535 9.252,17.395 C10.126,17.252 11.129,16.849 11.322,16.142 L11.735,16.197 L11.329,16.111 C11.392,15.829 11.319,15.542 11.129,15.323 L8.517,12.298 C8.245,11.982 7.787,11.884 7.404,12.061 L6.522,12.468 C6.215,12.611 5.847,12.504 5.669,12.219 C5.302,11.627 4.958,11.001 4.648,10.353 C4.337,9.705 4.063,9.045 3.834,8.393 C3.723,8.076 3.873,7.731 4.182,7.588 L5.063,7.180 C5.445,7.004 5.660,6.595 5.586,6.187 L4.874,2.285 C4.823,2.001 4.644,1.763 4.383,1.630 C4.247,1.561 4.101,1.527 3.954,1.527 ZM6.169,11.731 C6.168,11.732 6.168,11.732 6.168,11.732 L6.169,11.731 ZM4.536,8.325 L4.535,8.325 C4.535,8.325 4.535,8.325 4.535,8.325 L4.536,8.325 Z"></path></svg>