<?xml version="1.0" encoding="UTF-8"?>
<svg width="176px" height="38px" viewBox="0 0 176 38" version="1.1" xmlns="http://www.w3.org/2000/svg" xmlns:xlink="http://www.w3.org/1999/xlink">
    <g id="Page-1" stroke="none" stroke-width="1" fill="none" fill-rule="evenodd">
        <g transform="translate(-1009.000000, -17.000000)">
            <g id="logo/white" transform="translate(1009.000000, 17.000000)">
                <path d="M172.6279,6.4108 C172.7529,7.4328 172.6219,8.2158 172.2329,8.7588 C171.8439,9.3018 171.2209,9.5738 170.3649,9.5738 C169.7009,9.5738 169.1669,9.4968 168.7619,9.3448 C168.6039,9.2878 168.5099,9.2368 168.4809,9.1918 C168.4509,9.1478 168.4259,9.0428 168.4059,8.8778 L168.2969,7.9918 C168.2679,7.7508 168.3899,7.6428 168.6649,7.6678 C169.1459,7.7058 169.4319,7.7248 169.5229,7.7248 C170.3669,7.7248 170.7389,7.3158 170.6389,6.4968 L170.2619,3.4298 C170.1499,2.5208 169.6719,2.0668 168.8279,2.0668 L167.6059,2.0668 C167.0569,2.0668 166.7149,2.2038 166.5799,2.4768 L167.3889,9.0688 C167.4119,9.2528 167.4039,9.3668 167.3679,9.4108 C167.3309,9.4558 167.2369,9.4778 167.0859,9.4778 L165.7559,9.4778 C165.6839,9.4778 165.6249,9.4748 165.5779,9.4688 C165.5319,9.4618 165.4949,9.4448 165.4679,9.4158 C165.4399,9.3878 165.4199,9.3468 165.4069,9.2918 C165.3949,9.2388 165.3819,9.1638 165.3709,9.0688 L164.6239,2.9818 C164.5879,2.6958 164.4699,2.4418 164.2679,2.2198 L163.7779,1.6958 C163.6259,1.5368 163.5439,1.4128 163.5329,1.3238 C163.5219,1.2348 163.5749,1.1238 163.6909,0.9908 L164.4169,0.1908 C164.5399,0.0638 164.6619,-0.0002 164.7819,-0.0002 C164.8729,-0.0002 164.9749,0.0448 165.0879,0.1338 L165.4689,0.5048 L166.0639,1.1528 C166.6919,0.4738 167.3019,0.1338 167.8939,0.1338 L169.1509,0.1338 C170.9549,0.1338 171.9749,1.0888 172.2089,3.0008 L172.6279,6.4108 Z M163.0829,6.3158 C162.9169,8.4998 161.8259,9.5928 159.8109,9.5928 L158.7339,9.5928 C157.8229,9.5928 157.0759,9.3558 156.4929,8.8828 C155.9099,8.4098 155.4599,7.6398 155.1419,6.5728 L153.3839,0.7338 C153.2719,0.3588 153.3239,0.1718 153.5409,0.1718 L154.9709,0.1718 C155.1699,0.1718 155.3209,0.3468 155.4239,0.6958 L156.6759,5.0678 L156.7529,5.0298 C157.1309,4.8138 157.3319,4.3848 157.3559,3.7438 L157.4579,0.6768 C157.4829,0.3398 157.5919,0.1718 157.7849,0.1718 L159.1339,0.1718 C159.3089,0.1718 159.4159,0.2318 159.4549,0.3518 C159.4669,0.4038 159.4659,0.5458 159.4529,0.7808 L159.2959,3.7058 C159.2399,4.5758 158.9369,5.1788 158.3869,5.5148 L157.0739,6.3158 L157.2569,6.9248 C157.4589,7.5348 157.8979,7.8398 158.5729,7.8398 L159.5049,7.8398 C160.4219,7.8398 160.9209,7.3858 161.0029,6.4778 L161.4869,0.6188 C161.5169,0.3208 161.6339,0.1718 161.8389,0.1718 L163.2149,0.1718 C163.4379,0.1718 163.5329,0.3518 163.4989,0.7148 L163.0829,6.3158 Z M149.1659,13.2028 C149.1879,13.3808 149.1789,13.4938 149.1399,13.5408 C149.1009,13.5888 149.0079,13.6118 148.8629,13.6118 L147.5969,13.6118 C147.3489,13.6118 147.2089,13.4758 147.1749,13.2028 L146.3199,6.2398 C146.2739,5.8578 146.3489,5.2488 146.5479,4.4108 C146.5949,4.2008 146.7179,4.0958 146.9169,4.0958 L147.7319,4.0958 C147.9419,4.0958 148.0629,4.2198 148.0939,4.4678 L149.1659,13.2028 Z M152.0159,8.9928 C151.9109,9.3158 151.7819,9.4778 151.6319,9.4778 L150.1289,9.4778 C149.9849,9.4778 149.9029,9.3988 149.8829,9.2398 C149.8679,9.1188 149.8919,8.9698 149.9549,8.7918 L151.6049,4.0958 C151.6899,3.8098 151.7169,3.5368 151.6849,3.2768 C151.6429,2.9338 151.5039,2.6498 151.2679,2.4248 C151.0319,2.1988 150.7329,2.0858 150.3709,2.0858 L145.8559,2.0858 C145.6079,2.0858 145.4679,1.9498 145.4339,1.6768 L145.2969,0.5618 C145.2659,0.3018 145.3729,0.1718 145.6209,0.1718 L150.0449,0.1718 C151.0169,0.1718 151.8239,0.4538 152.4659,1.0188 C153.1019,1.5778 153.4749,2.3058 153.5849,3.2008 C153.6639,3.8418 153.5859,4.5088 153.3509,5.2008 L152.0159,8.9928 Z M145.0999,5.2678 C145.1219,5.4458 145.1139,5.5578 145.0779,5.6058 C145.0419,5.6538 144.9479,5.6778 144.7969,5.6778 L143.5029,5.6778 C143.2549,5.6778 143.1149,5.5408 143.0819,5.2678 L142.4989,0.5238 C142.4699,0.2888 142.5799,0.1718 142.8269,0.1718 L144.1029,0.1718 C144.1929,0.1718 144.2629,0.1768 144.3129,0.1858 C144.3619,0.1958 144.4009,0.2148 144.4279,0.2428 C144.4559,0.2718 144.4769,0.3138 144.4889,0.3718 C144.5029,0.4288 144.5149,0.5048 144.5259,0.5998 L145.0999,5.2678 Z M141.7079,3.4678 C141.7389,4.6038 141.6069,5.5658 141.3109,6.3538 C141.0409,7.0528 140.5799,7.7478 139.9289,8.4398 C139.2459,9.1638 138.1079,9.9958 136.5159,10.9358 C136.3079,11.0568 136.1589,11.1168 136.0679,11.1168 C135.9779,11.1168 135.9059,11.0748 135.8539,10.9928 L135.3299,10.1928 C135.2029,9.9958 135.1359,9.8658 135.1279,9.8018 C135.1139,9.6878 135.1719,9.5928 135.3009,9.5158 C135.9269,9.1538 136.5929,8.6878 137.3009,8.1158 L137.3479,8.0488 L134.2659,0.6388 C134.1489,0.3278 134.2299,0.1718 134.5069,0.1718 L135.8739,0.1718 C136.0599,0.1718 136.1819,0.2068 136.2389,0.2758 C136.3089,0.3518 136.3779,0.4928 136.4439,0.6958 L137.8719,4.3628 C138.1459,5.0678 138.3139,5.6738 138.3759,6.1818 C138.4139,6.4938 138.4369,6.8238 138.4429,7.1728 L138.5229,7.2298 C139.0169,6.7858 139.3439,6.2808 139.5039,5.7158 C139.6539,5.2198 139.7099,4.5178 139.6709,3.6098 L139.5649,0.7618 C139.5469,0.3688 139.6469,0.1718 139.8639,0.1718 L141.2489,0.1718 C141.4959,0.1718 141.6279,0.3338 141.6429,0.6578 L141.7079,3.4678 Z M134.2759,5.2678 C134.2979,5.4458 134.2909,5.5578 134.2539,5.6058 C134.2179,5.6538 134.1239,5.6778 133.9739,5.6778 L132.6789,5.6778 C132.4319,5.6778 132.2919,5.5408 132.2579,5.2678 L131.6759,0.5238 C131.6469,0.2888 131.7559,0.1718 132.0029,0.1718 L133.2789,0.1718 C133.3699,0.1718 133.4399,0.1768 133.4889,0.1858 C133.5389,0.1958 133.5769,0.2148 133.6049,0.2428 C133.6319,0.2718 133.6529,0.3138 133.6659,0.3718 C133.6789,0.4288 133.6909,0.5048 133.7029,0.5998 L134.2759,5.2678 Z M129.4869,7.5828 L128.9539,3.2388 C128.8889,2.7048 128.6979,2.3588 128.3829,2.2008 C128.1269,2.0738 127.6239,2.0098 126.8759,2.0098 L125.3009,2.0098 L125.9849,7.5828 L129.4869,7.5828 Z M131.6879,9.0688 C131.7219,9.3418 131.6149,9.4778 131.3669,9.4778 L124.5619,9.4778 C124.3149,9.4778 124.1739,9.3418 124.1409,9.0688 L123.2839,2.0858 L122.8769,2.0858 C122.6169,2.0858 122.4729,1.9688 122.4439,1.7338 L122.3189,0.7148 C122.2879,0.4608 122.3879,0.3178 122.6189,0.2858 C123.3069,0.2348 123.9909,0.1968 124.6729,0.1718 C125.3549,0.1458 126.0359,0.1338 126.7179,0.1338 C128.1899,0.1338 129.2289,0.3428 129.8359,0.7618 C130.4409,1.1748 130.8199,2.0008 130.9719,3.2388 L131.6879,9.0688 Z M118.8589,9.0688 C118.8929,9.3418 118.8069,9.4778 118.6019,9.4778 L111.8869,9.4778 C111.7299,9.4778 111.6259,9.4528 111.5749,9.4018 C111.5229,9.3508 111.4879,9.2528 111.4699,9.1068 L111.3289,7.9538 C111.3069,7.7758 111.3249,7.6668 111.3829,7.6248 C111.4419,7.5838 111.5309,7.5628 111.6519,7.5628 L115.7879,7.5628 L115.2409,3.1148 C115.1759,2.5818 114.9409,2.2448 114.5379,2.1048 C114.3479,2.0288 113.9419,1.9908 113.3199,1.9908 C112.4399,1.9908 111.7479,2.0288 111.2439,2.1048 C111.0139,2.1428 110.8799,2.0138 110.8429,1.7148 L110.7379,0.8568 C110.7009,0.5528 110.7599,0.3748 110.9169,0.3238 C111.5119,0.1588 112.4399,0.0768 113.7009,0.0768 C114.7929,0.0768 115.6139,0.2758 116.1639,0.6768 C116.7379,1.1268 117.0899,1.8828 117.2199,2.9438 L117.7919,7.6018 L118.3259,7.6018 C118.5619,7.6018 118.6959,7.7378 118.7289,8.0108 L118.8589,9.0688 Z M110.8269,12.9648 C110.8599,13.2378 110.7469,13.3738 110.4879,13.3738 L109.2029,13.3738 C109.0459,13.3738 108.9459,13.3518 108.9049,13.3068 C108.8629,13.2628 108.8309,13.1488 108.8089,12.9648 L107.5899,3.0388 C107.5649,2.8418 107.5179,2.6758 107.4469,2.5388 C107.3759,2.4018 107.2719,2.2938 107.1359,2.2148 C106.9989,2.1358 106.8259,2.0778 106.6169,2.0428 C106.4069,2.0088 106.1549,1.9908 105.8589,1.9908 C105.2919,1.9908 104.7899,1.9988 104.3509,2.0148 C103.9129,2.0308 103.5319,2.0548 103.2109,2.0858 C102.9879,2.0928 102.8599,1.9618 102.8279,1.6958 L102.7179,0.7998 C102.6819,0.5078 102.7649,0.3488 102.9669,0.3238 C103.3799,0.2538 103.8489,0.2018 104.3729,0.1668 C104.8969,0.1318 105.4779,0.1148 106.1179,0.1148 C107.2579,0.1148 108.0949,0.3488 108.6289,0.8188 C109.1579,1.2888 109.4869,2.0548 109.6169,3.1148 L110.8269,12.9648 Z M164.6953,33.047 L157.9753,33.047 L156.6643,24.858 C157.6483,23.688 160.6473,22.785 162.7513,22.785 L163.0523,22.785 L164.6953,33.047 Z M175.7583,33.047 L168.8073,33.047 L167.1213,22.517 C166.8813,21.013 166.1183,20.011 164.3813,20.011 L156.9543,19.978 C156.1013,19.242 155.0393,18.039 154.4883,16.266 L167.2243,16.266 C170.8683,16.266 173.3263,17.838 174.0163,22.149 L175.7583,33.047 Z M156.1403,29.237 C156.3493,30.542 156.1593,32.079 154.8433,33.047 L137.4603,33.047 C137.6033,31.644 138.0483,30.04 139.2583,29.237 L144.1713,29.237 C145.7423,29.237 147.7013,28.735 147.3053,26.261 L146.7883,23.019 C146.4123,20.679 144.7973,19.978 142.6903,19.978 L137.6083,19.978 C136.5573,19.041 135.5073,17.705 135.1763,16.266 L147.5463,16.266 C150.4873,16.266 153.0113,18.673 153.4823,21.615 L154.0553,25.192 C154.3233,26.863 153.9303,28.804 151.9933,29.237 L156.1403,29.237 Z M135.3323,24.714 C134.2833,25.047 133.0673,25.182 131.8303,25.182 C130.5933,25.182 129.4023,25.047 128.4133,24.714 L127.1173,16.266 L134.0373,16.266 L135.3323,24.714 Z M127.4883,30.674 C127.7503,32.313 127.0003,33.047 125.4953,33.047 L115.5003,33.047 C115.4893,31.946 115.8633,30.107 116.7003,29.27 L120.0433,29.27 C120.3443,29.27 120.3713,29.237 120.2973,28.769 L119.2223,22.049 C119.0093,20.712 117.9203,19.978 116.6503,19.978 L115.3463,19.978 C114.5333,19.276 113.4833,17.939 113.2483,16.466 C113.2373,16.4 113.2573,16.333 113.2483,16.266 L119.4003,16.266 C123.3113,16.266 125.4673,18.039 126.0713,21.816 L127.4883,30.674 Z M112.7953,19.543 C112.8373,19.81 112.8433,20.043 112.8523,20.311 L113.0103,26.73 C113.0863,30.975 109.9753,33.047 105.5943,33.047 L98.3303,33.047 C98.2813,31.911 98.8633,29.906 99.6593,29.237 L103.3483,29.237 C105.2543,29.237 106.0633,28.233 106.0633,26.564 L106.0123,21.649 C106.0133,21.448 106.0193,21.281 105.9943,21.113 C105.8813,20.412 105.5203,20.043 104.5843,20.043 L97.8663,20.043 C96.5623,20.043 95.4093,18.908 95.1803,17.47 L94.3473,12.255 C95.0463,11.82 96.0623,11.487 97.6333,11.487 C99.2043,11.487 100.2393,11.686 101.0113,11.919 L101.6003,15.598 C101.6583,15.965 101.9423,16.266 102.3433,16.266 L108.8953,16.266 C111.4013,16.266 112.5173,17.803 112.7953,19.543 Z M97.0063,33.047 L89.0843,33.047 L82.3433,26.229 L82.0253,26.328 L83.0993,33.047 L76.1463,33.047 L75.3163,27.867 C74.9853,25.794 75.4383,23.186 78.8093,22.317 L72.7923,16.266 L80.4153,16.266 L87.3393,23.186 L87.6743,23.186 L86.5653,16.266 L93.5193,16.266 L94.3493,21.448 C94.6853,23.555 94.1963,25.928 90.6523,26.763 L97.0063,33.047 Z M73.9393,33.047 L66.7843,33.047 L64.1103,16.333 L71.2653,16.333 L73.9393,33.047 Z M64.3223,27.365 C64.9803,31.477 62.0213,33.047 58.3783,33.047 L52.9623,33.047 C52.9533,31.946 53.4523,29.839 54.2633,29.27 L55.2933,29.237 C56.8653,29.237 57.4703,28 57.2713,26.763 C57.2513,26.629 57.2353,26.529 57.1803,26.397 L55.9163,22.049 C55.4853,20.611 54.2813,19.978 53.0113,19.978 L51.6733,19.978 L51.4243,33.047 L44.5043,33.047 L44.9883,19.978 C43.4823,19.978 42.1523,18.138 41.8533,16.266 L55.3923,16.266 C59.7043,16.266 61.7353,18.305 62.7603,21.781 L64.0523,26.095 C64.1883,26.529 64.2573,26.964 64.3223,27.365 Z M41.9673,24.714 C40.9163,25.047 39.7023,25.182 38.4643,25.182 C37.2283,25.182 36.0373,25.047 35.0473,24.714 L33.7523,16.266 L40.6723,16.266 L41.9673,24.714 Z" id="Combined-Shape" fill="#FEFEFE"></path>
                <path d="M27.4009,29.8429 L30.0529,32.3669 C30.5089,32.7989 30.2879,32.9609 30.0479,32.9659 L25.7149,33.0679 C25.4049,33.0749 25.0349,32.8899 24.7539,32.6189 L21.9649,29.9569 C21.3789,29.3989 21.2209,28.6949 21.5869,28.3539 L24.9509,25.2419 C25.2819,24.9359 25.1759,24.2629 24.6259,23.7349 L22.1299,21.3379 C21.5339,20.7649 21.3439,20.0549 21.7239,19.7109 L25.1679,16.5699 C25.4259,16.3339 25.7289,16.1329 26.1629,16.1289 L30.2219,16.0919 C30.5479,16.0889 30.7959,16.4469 30.6469,16.5859 L27.2129,19.7759 C26.8769,20.0869 27.0719,20.7649 27.6039,21.2849 L29.9979,23.6259 C30.5909,24.2039 30.7809,24.9059 30.4039,25.2549 L27.0929,28.3269 C26.7469,28.6469 26.8519,29.3199 27.4009,29.8429 Z M19.1619,27.6579 C19.7529,28.2349 19.9439,28.9369 19.5689,29.2859 L16.2579,32.3579 C15.9079,32.6809 16.0159,33.3519 16.5629,33.8739 L19.2549,36.4259 C19.6199,36.7709 19.5639,37.0059 19.1929,37.0149 L14.8789,37.0989 C14.5679,37.1039 14.1999,36.9199 13.9159,36.6499 L11.1279,33.9879 C10.5429,33.4299 10.3819,32.7269 10.7499,32.3849 L14.1149,29.2729 C14.4469,28.9649 14.3389,28.2939 13.7889,27.7659 L11.5719,25.6359 C10.9879,25.0779 10.8259,24.3749 11.1939,24.0329 L14.5589,20.9209 C14.8909,20.6129 14.7839,19.9419 14.2339,19.4139 L11.7379,17.0169 C11.1399,16.4439 10.9529,15.7359 11.3319,15.3899 L14.7759,12.2479 C15.0319,12.0139 15.3369,11.8119 15.7719,11.8079 L19.8379,11.7769 C20.1019,11.7659 20.4199,12.0979 20.2399,12.2779 L16.8199,15.4549 C16.4849,15.7669 16.6809,16.4449 17.2109,16.9639 L19.6059,19.3069 C20.1979,19.8829 20.3879,20.5849 20.0119,20.9329 L16.6999,24.0059 C16.3539,24.3289 16.4799,24.9859 17.0079,25.5219 L19.1619,27.6579 Z M6.0109,29.9109 L8.6619,32.4359 C9.1179,32.8699 8.8979,33.0299 8.6579,33.0369 L4.3249,33.1369 C4.0149,33.1459 3.6449,32.9609 3.3629,32.6889 L0.5739,30.0269 C-0.0111,29.4689 -0.1711,28.7629 0.1969,28.4239 L3.5609,25.3119 C3.8919,25.0059 3.7849,24.3329 3.2349,23.8049 L0.7399,21.4069 C0.1439,20.8339 -0.0461,20.1249 0.3329,19.7789 L3.7789,16.6379 C4.0359,16.4029 4.3399,16.2009 4.7729,16.1969 L8.8319,16.1629 C9.1589,16.1599 9.4059,16.5159 9.2569,16.6539 L5.8219,19.8449 C5.4869,20.1579 5.6819,20.8359 6.2139,21.3549 L8.6089,23.6959 C9.2009,24.2749 9.3909,24.9739 9.0149,25.3239 L5.7039,28.3949 C5.3569,28.7179 5.4629,29.3909 6.0109,29.9109 Z" id="Fill-4" fill="#FEC10E"></path>
            </g>
        </g>
    </g>
</svg>
