<svg xmlns="http://www.w3.org/2000/svg" xmlns:xlink="http://www.w3.org/1999/xlink" width="23px" height="20px"><path fill-rule="evenodd" d="M22.298,7.462 C22.219,7.241 22.003,7.079 21.748,7.050 L15.002,6.271 L12.099,0.707 C11.990,0.497 11.753,0.361 11.496,0.361 C11.239,0.361 11.002,0.497 10.893,0.707 L7.989,6.271 L1.244,7.050 C0.988,7.079 0.772,7.241 0.693,7.462 C0.614,7.683 0.683,7.928 0.871,8.088 L5.822,12.306 L4.556,18.352 C4.508,18.579 4.611,18.816 4.819,18.951 C5.025,19.087 5.312,19.102 5.532,18.993 L11.496,16.035 L17.459,18.993 C17.685,19.105 17.964,19.089 18.172,18.951 C18.380,18.816 18.484,18.579 18.436,18.351 L17.170,12.306 L17.211,12.271 L22.121,8.088 C22.308,7.929 22.378,7.683 22.298,7.462 ZM16.332,11.773 C16.144,11.933 16.060,12.166 16.108,12.396 L17.253,17.866 L11.859,15.191 C11.638,15.081 11.353,15.081 11.134,15.191 L5.738,17.866 L6.882,12.396 C6.931,12.166 6.847,11.933 6.659,11.772 L2.179,7.956 L8.282,7.252 C8.539,7.222 8.758,7.078 8.869,6.866 L11.496,1.832 L14.122,6.866 C14.233,7.078 14.452,7.222 14.709,7.252 L20.813,7.956 L16.332,11.773 Z"></path></svg>