<?xml version="1.0" encoding="UTF-8"?>
<svg width="79px" height="78px" viewBox="0 0 79 78" version="1.1" xmlns="http://www.w3.org/2000/svg" xmlns:xlink="http://www.w3.org/1999/xlink">
    <g id="Page-1" stroke="none" stroke-width="1" fill="none" fill-rule="evenodd">
        <g transform="translate(-861.000000, -314.000000)">
            <g transform="translate(742.000000, 314.000000)">
                <g id="personal" transform="translate(119.000000, 0.000000)">
                    <path d="M52.9331984,58.6741469 L52.9331984,56.7639429 L69.4048583,56.7639429 L69.4048583,58.6741469 L52.9331984,58.6741469 Z M43.3380567,49.1231265 L43.3380567,47.2129224 L69.4048583,47.2129224 L69.4048583,49.1231265 L43.3380567,49.1231265 Z M52.9331984,39.5721061 L52.9331984,37.661902 L69.4048583,37.661902 L69.4048583,39.5721061 L52.9331984,39.5721061 Z M43.3380567,68.2251673 L43.3380567,66.3149633 L69.4048583,66.3149633 L69.4048583,68.2251673 L43.3380567,68.2251673 Z M57.0037773,4.77551023e-05 L58.3971518,1.31410898 L45.257085,15.1199498 L45.257085,23.3354192 L79,23.3354192 L79,77.9354192 L0,77.9354192 L0,23.3354192 L33.742915,23.3354192 L33.742915,15.1199498 L20.6028482,1.31410898 L21.9962227,4.77551023e-05 L35.1147004,13.7843988 L43.8846599,13.7843988 L57.0037773,4.77551023e-05 Z M35.6619433,28.1107702 L43.3380567,28.1107702 L43.3380567,15.6946029 L35.6619433,15.6946029 L35.6619433,28.1107702 Z M45.257085,30.0211335 L33.742915,30.0211335 L33.742915,25.2456233 L1.91902834,25.2456233 L1.91902834,76.0252151 L77.0809717,76.0252151 L77.0809717,25.2456233 L45.257085,25.2456233 L45.257085,30.0211335 Z" id="Combined-Shape" fill="#FFFFFF"></path>
                    <path d="M22.708502,34.7965959 C19.2694433,34.7965959 16.4716599,37.5815143 16.4716599,41.0047592 C16.4716599,44.4280041 19.2694433,47.2129224 22.708502,47.2129224 C26.1475607,47.2129224 28.9453441,44.4280041 28.9453441,41.0047592 C28.9453441,37.5815143 26.1475607,34.7965959 22.708502,34.7965959 Z M22.708502,49.1231265 C18.211419,49.1231265 14.5526316,45.4811633 14.5526316,41.0047592 C14.5526316,36.5283551 18.211419,32.8863918 22.708502,32.8863918 C27.205585,32.8863918 30.8643725,36.5283551 30.8643725,41.0047592 C30.8643725,45.4811633 27.205585,49.1231265 22.708502,49.1231265 Z M22.708502,53.8986367 C16.6240628,53.8986367 11.6740891,58.825849 11.6740891,64.8823102 L11.6740891,66.3149633 L33.742915,66.3149633 L33.742915,64.8823102 C33.742915,58.825849 28.7929413,53.8986367 22.708502,53.8986367 Z M9.75506073,68.2251673 L9.75506073,64.8823102 C9.75506073,57.7726898 15.5660385,51.9884327 22.708502,51.9884327 C29.8509656,51.9884327 35.6619433,57.7726898 35.6619433,64.8823102 L35.6619433,68.2251673 L9.75506073,68.2251673 Z" id="Combined-Shape" fill="#FFC10E"></path>
                </g>
            </g>
        </g>
    </g>
</svg>
